# xmcd
#
# Track frame offsets:
#	150
#	17395
#	35542
#	51661
#	71494
#	87323
#	103663
#	123412
#	145338
#	164313
#	185974
#	200126
#	217430
#
# Disc length: 3286 seconds
#
# Revision: 2
# Processed by: cddbd v1.5.1PL0 Copyright (c) Steve Scherf et al.
# Submitted via: EasyCDDAExtractor 8.2.1.1
#
DISCID=cf0cd40d
DTITLE=биссг амма - паяанемес еийомес CD2
DYEAR=2003
DGENRE=Pop
TTITLE0=ьуведекеиа
TTITLE1=батеякы
TTITLE2=ле ли╒ суццмылг
TTITLE3=жеуцы
TTITLE4=о амтяас тгс фыгс лоу
TTITLE5=лыб
TTITLE6=дем апожасиса ец©
TTITLE7=стгяиноу епамы лоу
TTITLE8=аяйета
TTITLE9=ти аполемеи
TTITLE10=м╦а жикадекжеиа
TTITLE11=пыс та жеямеи етси г фыг
TTITLE12=еисаи (PRODIGAL SON REMIX)
EXTD=cd
EXTT0=
EXTT1=
EXTT2=
EXTT3=
EXTT4=
EXTT5=
EXTT6=
EXTT7=
EXTT8=
EXTT9=
EXTT10=
EXTT11=
EXTT12=
PLAYORDER=
